<svg version="1.2" xmlns="http://www.w3.org/2000/svg" viewBox="0 0 224 50" width="224" height="50">
	<title>New Project</title>
	<style>
		.s0 { fill: #000000 } 
		.s1 { fill: #29376f } 
	</style>
	<path id="AvanteSoft" class="s0" aria-label="AvanteSoft"  d="m9.1 15.6h5.9l9.6 22.4h-4.8l-7-16.2-6.9 16.2h-4.8l8.6-20zm25 16.2l6.9-16.2h4.8l-9.6 22.4h-4.2l-7.8-18.2-2.9-4.2h5.9zm16.8-16.2h5.9l9.6 22.4h-4.8l-6.9-16.2-7 16.2h-4.8l8.6-20.1zm32.7 15v-15h4.3v22.4h-4.3l-10.6-14.9v14.9h-4.3v-18.1l-1.1-4.3h5.4zm7.3-10.6l-1.1-4.3h21.4v4.3h-8v18.1h-4.3v-18.1h-8zm40.5-4.3v4.3h-18.1l-1.1-4.3zm-11.7 18.1h12.3v4.3h-13.4q-2.2 0-3.8-1.6-1.5-1.5-1.5-3.7v-8h16.5v4.2h-12.2v2.7q0 0.9 0.6 1.5 0.6 0.6 1.5 0.6z"/>
	<path id="AvanteSoft" class="s1" aria-label="AvanteSoft"  d="m140.8 24.7h8q2.2 0 3.8 1.5 1.5 1.6 1.5 3.8v2.7q0 1.4-0.7 2.6-0.7 1.3-2 2-1.2 0.7-2.6 0.7h-9.1q-2.2 0-3.8-1.6-1.5-1.5-1.5-3.7v-1.1h4.3q0 0.9 0.6 1.5 0.6 0.6 1.5 0.6h6.9q0.6 0 1.1-0.2 0.5-0.3 0.7-0.8 0.3-0.5 0.3-1.1v-0.5q0-0.9-0.6-1.5-0.6-0.7-1.5-0.7h-8q-2.2 0-3.8-1.5-1.5-1.6-1.5-3.8v-2.7q0-2.2 1.5-3.7 1.6-1.6 3.8-1.6h8.5q2.2 0 3.8 1.6 1.6 1.5 1.6 3.7v1.1h-4.3q0-0.9-0.6-1.5-0.6-0.6-1.5-0.6h-6.4q-0.6 0-1.1 0.3-0.5 0.2-0.8 0.7-0.3 0.5-0.3 1.1v0.5q0 0.9 0.6 1.5 0.7 0.7 1.6 0.7zm21.6-9.1h9.6q2.2 0 3.7 1.6 1.6 1.5 1.6 3.7v11.8q0 1.4-0.7 2.6-0.7 1.3-2 2-1.2 0.7-2.6 0.7h-9.6q-2.2 0-3.8-1.6-1.6-1.5-1.6-3.7v-11.8q0-2.2 1.6-3.7 1.6-1.6 3.8-1.6zm10.6 16v-9.6q0-0.9-0.6-1.5-0.6-0.6-1.5-0.6h-7.5q-0.9 0-1.5 0.6-0.6 0.6-0.6 1.5v9.6q0 0.9 0.6 1.5 0.6 0.6 1.5 0.6h7.5q0.9 0 1.5-0.6 0.6-0.6 0.6-1.5zm7.9-11.7l-1.1-4.3h19.8v4.3zm4.3 18.1h-4.3v-13.3h16.5v4.2h-12.2zm15.9-18.1l-1.1-4.3h21.4v4.3h-8v18.1h-4.3v-18.1h-8z"/>
</svg>